<svg width="18" height="19" viewBox="0 0 18 19" fill="none" xmlns="http://www.w3.org/2000/svg">
<path d="M7.39291 4.9999C7.39291 4.57365 7.56223 4.16487 7.86363 3.86347C8.16503 3.56208 8.57381 3.39275 9.00005 3.39275C9.42629 3.39275 9.83508 3.56208 10.1365 3.86347C10.4379 4.16487 10.6072 4.57365 10.6072 4.9999C10.6072 5.42614 10.4379 5.83492 10.1365 6.13632C9.83508 6.43771 9.42629 6.60704 9.00005 6.60704C8.57381 6.60704 8.16503 6.43771 7.86363 6.13632C7.56223 5.83492 7.39291 5.42614 7.39291 4.9999ZM9.00005 2.42847C8.31807 2.42847 7.66401 2.69938 7.18178 3.18162C6.69954 3.66386 6.42862 4.31791 6.42862 4.9999C6.42862 5.68188 6.69954 6.33593 7.18178 6.81817C7.66401 7.30041 8.31807 7.57132 9.00005 7.57132C9.68204 7.57132 10.3361 7.30041 10.8183 6.81817C11.3006 6.33593 11.5715 5.68188 11.5715 4.9999C11.5715 4.31791 11.3006 3.66386 10.8183 3.18162C10.3361 2.69938 9.68204 2.42847 9.00005 2.42847ZM3.53577 5.32132C3.19477 5.32132 2.86775 5.45678 2.62663 5.6979C2.38551 5.93902 2.25005 6.26605 2.25005 6.60704C2.25005 6.94803 2.38551 7.27506 2.62663 7.51618C2.86775 7.75729 3.19477 7.89275 3.53577 7.89275C3.87676 7.89275 4.20379 7.75729 4.4449 7.51618C4.68602 7.27506 4.82148 6.94803 4.82148 6.60704C4.82148 6.26605 4.68602 5.93902 4.4449 5.6979C4.20379 5.45678 3.87676 5.32132 3.53577 5.32132ZM1.28577 6.60704C1.28577 6.31156 1.34396 6.01898 1.45704 5.746C1.57011 5.47302 1.73584 5.22498 1.94478 5.01605C2.15371 4.80712 2.40175 4.64138 2.67473 4.52831C2.94771 4.41524 3.24029 4.35704 3.53577 4.35704C3.83124 4.35704 4.12382 4.41524 4.3968 4.52831C4.66979 4.64138 4.91782 4.80712 5.12676 5.01605C5.33569 5.22498 5.50142 5.47302 5.6145 5.746C5.72757 6.01898 5.78577 6.31156 5.78577 6.60704C5.78577 7.20378 5.54871 7.77607 5.12676 8.19803C4.7048 8.61999 4.1325 8.85704 3.53577 8.85704C2.93903 8.85704 2.36673 8.61999 1.94478 8.19803C1.52282 7.77607 1.28577 7.20378 1.28577 6.60704ZM14.4643 5.32132C14.1233 5.32132 13.7963 5.45678 13.5552 5.6979C13.3141 5.93902 13.1786 6.26605 13.1786 6.60704C13.1786 6.94803 13.3141 7.27506 13.5552 7.51618C13.7963 7.75729 14.1233 7.89275 14.4643 7.89275C14.8053 7.89275 15.1324 7.75729 15.3735 7.51618C15.6146 7.27506 15.7501 6.94803 15.7501 6.60704C15.7501 6.26605 15.6146 5.93902 15.3735 5.6979C15.1324 5.45678 14.8053 5.32132 14.4643 5.32132ZM12.2143 6.60704C12.2143 6.0103 12.4514 5.438 12.8733 5.01605C13.2953 4.59409 13.8676 4.35704 14.4643 4.35704C15.0611 4.35704 15.6334 4.59409 16.0553 5.01605C16.4773 5.438 16.7143 6.0103 16.7143 6.60704C16.7143 7.20378 16.4773 7.77607 16.0553 8.19803C15.6334 8.61999 15.0611 8.85704 14.4643 8.85704C13.8676 8.85704 13.2953 8.61999 12.8733 8.19803C12.4514 7.77607 12.2143 7.20378 12.2143 6.60704ZM5.78577 9.98204C5.78577 9.36104 6.28977 8.85704 6.91077 8.85704H11.0893C11.7103 8.85704 12.2143 9.36104 12.2143 9.98204V13.357C12.2143 14.2095 11.8757 15.0271 11.2729 15.6299C10.6701 16.2327 9.85253 16.5713 9.00005 16.5713C8.14757 16.5713 7.33 16.2327 6.72721 15.6299C6.12441 15.0271 5.78577 14.2095 5.78577 13.357V9.98204ZM6.91077 9.82132C6.86814 9.82132 6.82726 9.83826 6.79712 9.8684C6.76698 9.89854 6.75005 9.93941 6.75005 9.98204V13.357C6.75005 13.9538 6.9871 14.5261 7.40906 14.948C7.83102 15.37 8.40331 15.607 9.00005 15.607C9.59679 15.607 10.1691 15.37 10.591 14.948C11.013 14.5261 11.2501 13.9538 11.2501 13.357V9.98204C11.2501 9.93941 11.2331 9.89854 11.203 9.8684C11.1728 9.83826 11.132 9.82132 11.0893 9.82132H6.91077ZM5.14291 9.98332L2.11955 10.7933C1.97683 10.8316 1.84304 10.8976 1.72582 10.9876C1.60861 11.0776 1.51028 11.1897 1.43643 11.3177C1.36258 11.4457 1.31468 11.587 1.29544 11.7335C1.27621 11.88 1.28603 12.0289 1.32434 12.1716L1.86498 14.1895C1.98864 14.6514 2.21379 15.0799 2.52403 15.4438C2.83428 15.8076 3.22179 16.0977 3.65833 16.2928C4.09488 16.4879 4.56945 16.5832 5.04748 16.5716C5.5255 16.5601 5.99493 16.4421 6.42155 16.2261C6.17097 16.001 5.95095 15.744 5.76712 15.4618C5.69727 15.4883 5.62569 15.5115 5.55241 15.5312C5.26698 15.6077 4.96928 15.6272 4.6763 15.5887C4.38332 15.5501 4.1008 15.4542 3.84489 15.3065C3.58897 15.1587 3.36466 14.962 3.18477 14.7276C3.00489 14.4931 2.87294 14.2255 2.79648 13.9401L2.25584 11.9215C2.24485 11.8804 2.25066 11.8365 2.272 11.7996C2.29334 11.7627 2.32845 11.7358 2.36962 11.7248L5.14291 10.9817V9.98332ZM11.5792 16.2255C11.7742 16.324 11.9812 16.4031 12.2002 16.4627C12.6079 16.572 13.0332 16.5998 13.4518 16.5447C13.8703 16.4896 14.2739 16.3526 14.6395 16.1415C15.005 15.9305 15.3254 15.6494 15.5824 15.3145C15.8394 14.9796 16.0278 14.5973 16.1371 14.1895L16.6777 12.171C16.7549 11.8828 16.7144 11.5758 16.5653 11.3175C16.4162 11.0592 16.1706 10.8706 15.8825 10.7933L12.8572 9.98332V10.981L15.6331 11.7248C15.6741 11.736 15.7091 11.7629 15.7303 11.7998C15.7515 11.8367 15.7572 11.8805 15.7462 11.9215L15.2062 13.9401C15.1248 14.2441 14.9805 14.5277 14.7826 14.7725C14.5847 15.0173 14.3377 15.2178 14.0575 15.3612C13.7773 15.5045 13.4701 15.5875 13.1558 15.6047C12.8416 15.6219 12.5272 15.573 12.233 15.4611C12.0491 15.744 11.8286 16.0011 11.5792 16.2255Z" fill="white"/>
</svg>
