<svg width="24" height="25" viewBox="0 0 24 25" fill="none" xmlns="http://www.w3.org/2000/svg">
<path d="M7.616 20.5C7.168 20.5 6.78667 20.3426 6.472 20.028C6.15733 19.7133 6 19.3323 6 18.885V6.49998H5V5.49998H9V4.72998H15V5.49998H19V6.49998H18V18.885C18 19.345 17.846 19.7293 17.538 20.038C17.23 20.3466 16.8453 20.5006 16.384 20.5H7.616ZM17 6.49998H7V18.885C7 19.0643 7.05767 19.2116 7.173 19.327C7.28833 19.4423 7.436 19.5 7.616 19.5H16.385C16.5383 19.5 16.6793 19.436 16.808 19.308C16.9367 19.18 17.0007 19.0386 17 18.884V6.49998ZM9.808 17.5H10.808V8.49998H9.808V17.5ZM13.192 17.5H14.192V8.49998H13.192V17.5Z" fill="black"/>
</svg>
