<svg width="20" height="21" viewBox="0 0 20 21" fill="none" xmlns="http://www.w3.org/2000/svg">
<path d="M17.09 12.9412V17.3812C17.0897 18.0094 16.8401 18.6118 16.3958 19.0561C15.9516 19.5003 15.3492 19.75 14.721 19.7502H3.12C2.80776 19.7501 2.49861 19.6883 2.21034 19.5683C1.92206 19.4483 1.66033 19.2726 1.44019 19.0511C1.22005 18.8297 1.04584 18.5669 0.927569 18.2779C0.809295 17.989 0.74929 17.6795 0.751003 17.3672V5.77922C0.749145 5.46747 0.809179 5.15845 0.927624 4.87007C1.04607 4.58169 1.22057 4.31968 1.44102 4.09924C1.66146 3.87879 1.92347 3.70429 2.21185 3.58584C2.50023 3.4674 2.80925 3.40736 3.121 3.40922H7.56" stroke="black" stroke-width="1.5" stroke-linecap="round" stroke-linejoin="round"/>
<path d="M17.09 7.49521L13.005 3.40921M4.835 14.3032V12.1382C4.837 11.7812 4.979 11.4382 5.23 11.1852L14.762 1.65321C14.8885 1.52532 15.0391 1.42378 15.2051 1.35449C15.371 1.28519 15.5491 1.24951 15.729 1.24951C15.9089 1.24951 16.087 1.28519 16.2529 1.35449C16.4189 1.42378 16.5695 1.52532 16.696 1.65321L18.847 3.80421C18.9749 3.93069 19.0764 4.08128 19.1457 4.24727C19.215 4.41326 19.2507 4.59134 19.2507 4.77121C19.2507 4.95108 19.215 5.12917 19.1457 5.29515C19.0764 5.46114 18.9749 5.61173 18.847 5.73821L9.315 15.2702C9.06154 15.5219 8.71922 15.6638 8.362 15.6652H6.197C6.01807 15.6655 5.84084 15.6304 5.67547 15.5621C5.51011 15.4937 5.35986 15.3934 5.23333 15.2669C5.10681 15.1404 5.00649 14.9901 4.93814 14.8247C4.86979 14.6594 4.83474 14.4821 4.835 14.3032Z" stroke="black" stroke-width="1.5" stroke-linecap="round" stroke-linejoin="round"/>
</svg>
