<svg width="17" height="15" viewBox="0 0 17 15" fill="none" xmlns="http://www.w3.org/2000/svg">
<path d="M2.01278 0.625H14.9873C15.1168 0.625 15.2256 0.669 15.3136 0.757C15.4016 0.845 15.4456 0.954083 15.4456 1.08425C15.4456 1.21442 15.4016 1.32319 15.3136 1.41058C15.2256 1.49797 15.1168 1.54167 14.9873 1.54167H2.01278C1.88262 1.54167 1.77384 1.49767 1.68645 1.40967C1.59906 1.32167 1.55506 1.21258 1.55445 1.08242C1.55384 0.95225 1.59784 0.843472 1.68645 0.756083C1.77506 0.668695 1.88384 0.625 2.01278 0.625ZM2.3657 14.375C2.15609 14.375 1.98009 14.3041 1.8377 14.1623C1.69531 14.0206 1.62442 13.8446 1.62503 13.6343V8.875H1.21804C0.986424 8.875 0.793618 8.78181 0.639618 8.59542C0.485618 8.40903 0.439174 8.20003 0.500285 7.96842L1.41695 3.94975C1.45484 3.78231 1.54284 3.64481 1.68095 3.53725C1.81906 3.42908 1.97612 3.375 2.15212 3.375H14.848C15.024 3.375 15.181 3.42878 15.3191 3.53633C15.4572 3.6445 15.5452 3.78231 15.5831 3.94975L16.4998 7.96842C16.5609 8.20064 16.5145 8.40964 16.3605 8.59542C16.2065 8.78119 16.014 8.87439 15.783 8.875H15.375V13.9167C15.375 14.0468 15.331 14.1556 15.243 14.243C15.155 14.3304 15.046 14.3744 14.9158 14.375C14.7856 14.3756 14.6768 14.3316 14.5895 14.243C14.5021 14.1544 14.4584 14.0456 14.4584 13.9167V8.875H9.87504V13.6343C9.87504 13.8446 9.80415 14.0206 9.66237 14.1623C9.52059 14.3041 9.34459 14.375 9.13437 14.375H2.3657ZM2.5417 13.4583H8.95837V8.875H2.5417V13.4583ZM1.42337 7.95833H15.5767L14.726 4.29167H2.27404L1.42337 7.95833Z" fill="white"/>
</svg>
