<svg width="24" height="24" viewBox="0 0 24 24" fill="none" xmlns="http://www.w3.org/2000/svg">
<path opacity="0.5" d="M12 20C9.87827 20 7.84344 19.1571 6.34315 17.6569C4.84285 16.1566 4 14.1217 4 12C4 9.87827 4.84285 7.84344 6.34315 6.34315C7.84344 4.84285 9.87827 4 12 4V20Z" fill="white"/>
<path fill-rule="evenodd" clip-rule="evenodd" d="M16.47 8.46983C16.3295 8.61045 16.2507 8.80108 16.2507 8.99983C16.2507 9.19858 16.3295 9.3892 16.47 9.52983L18.19 11.2498H10C9.80109 11.2498 9.61032 11.3288 9.46967 11.4695C9.32902 11.6102 9.25 11.8009 9.25 11.9998C9.25 12.1987 9.32902 12.3895 9.46967 12.5302C9.61032 12.6708 9.80109 12.7498 10 12.7498H18.19L16.47 14.4698C16.3963 14.5385 16.3372 14.6213 16.2962 14.7133C16.2552 14.8053 16.2332 14.9046 16.2314 15.0053C16.2296 15.106 16.2482 15.206 16.2859 15.2994C16.3236 15.3928 16.3797 15.4776 16.451 15.5489C16.5222 15.6201 16.607 15.6762 16.7004 15.714C16.7938 15.7517 16.8938 15.7702 16.9945 15.7684C17.0952 15.7666 17.1945 15.7446 17.2865 15.7036C17.3785 15.6626 17.4613 15.6035 17.53 15.5298L20.53 12.5298C20.6705 12.3892 20.7493 12.1986 20.7493 11.9998C20.7493 11.8011 20.6705 11.6105 20.53 11.4698L17.53 8.46983C17.3894 8.32938 17.1988 8.25049 17 8.25049C16.8012 8.25049 16.6106 8.32938 16.47 8.46983Z" fill="white"/>
</svg>
