<svg width="15" height="15" viewBox="0 0 15 15" fill="none" xmlns="http://www.w3.org/2000/svg">
<g clip-path="url(#clip0_1264_932)">
<path d="M14.4714 9C14.5411 8.9999 14.6101 9.01361 14.6745 9.04033C14.7389 9.06706 14.7974 9.10627 14.8465 9.1557C14.8957 9.20514 14.9346 9.26383 14.9609 9.32837C14.9873 9.39291 15.0006 9.46203 15.0001 9.53175V11.9347C15.0006 12.0042 14.9874 12.073 14.9613 12.1373C14.9352 12.2016 14.8966 12.2601 14.8479 12.3095C14.7991 12.3589 14.7411 12.3981 14.6771 12.4251C14.6132 12.452 14.5445 12.4661 14.4751 12.4665C14.4057 12.4661 14.3371 12.452 14.2731 12.4251C14.2092 12.3981 14.1511 12.3589 14.1024 12.3095C14.0536 12.2601 14.0151 12.2016 13.9889 12.1373C13.9628 12.073 13.9496 12.0042 13.9501 11.9347V11.091C12.5844 13.383 10.0494 15 7.31787 15C4.01037 15 1.23837 12.9592 0.0361223 9.81375C-0.0147648 9.68273 -0.0117841 9.5369 0.0444144 9.40806C0.100613 9.27923 0.205471 9.17784 0.336122 9.126C0.606122 9.02025 0.910622 9.156 1.01562 9.42975C2.06562 12.1762 4.45662 13.9373 7.31787 13.9373C9.84612 13.9373 12.2079 12.3007 13.3081 10.0717L12.2049 10.0793C12.1355 10.0793 12.0667 10.0658 12.0026 10.0393C11.9384 10.0128 11.8801 9.97391 11.831 9.92487C11.7819 9.87583 11.743 9.81759 11.7164 9.75348C11.6898 9.68937 11.6761 9.62065 11.6761 9.55125C11.6743 9.41114 11.7282 9.27605 11.8259 9.17564C11.9237 9.07523 12.0573 9.01773 12.1974 9.01575L14.4714 9ZM7.68387 0C10.9899 0 13.7626 2.04075 14.9649 5.18625C15.0158 5.31727 15.0128 5.4631 14.9566 5.59194C14.9004 5.72077 14.7955 5.82216 14.6649 5.874C14.6004 5.89916 14.5315 5.91125 14.4623 5.90957C14.393 5.90789 14.3248 5.89247 14.2616 5.86421C14.1984 5.83595 14.1414 5.79541 14.094 5.74495C14.0466 5.69449 14.0097 5.6351 13.9854 5.57025C12.9354 2.82375 10.5444 1.06275 7.68312 1.06275C5.15487 1.06275 2.79312 2.69925 1.69287 4.92825L2.79612 4.92075C2.86552 4.92065 2.93426 4.93424 2.99841 4.96073C3.06256 4.98722 3.12085 5.02609 3.16996 5.07513C3.21907 5.12417 3.25803 5.18241 3.28461 5.24652C3.31119 5.31063 3.32487 5.37935 3.32487 5.44875C3.32668 5.58886 3.27279 5.72395 3.17506 5.82436C3.07732 5.92477 2.94373 5.98227 2.80362 5.98425L0.528872 6C0.459155 6.0001 0.390107 5.98639 0.325715 5.95967C0.261322 5.93294 0.20286 5.89373 0.153702 5.8443C0.104544 5.79486 0.0656628 5.73618 0.0393032 5.67163C0.0129435 5.60709 -0.000372915 5.53797 0.000122312 5.46825V3.06525C0.000122312 2.77125 0.234872 2.5335 0.525122 2.5335C0.815372 2.5335 1.05012 2.77125 1.05012 3.06525V3.909C2.41587 1.617 4.95087 0 7.68237 0" fill="#0FCA05"/>
</g>
<defs>
<clipPath id="clip0_1264_932">
<rect width="15" height="15" fill="white"/>
</clipPath>
</defs>
</svg>
