<svg width="16" height="17" viewBox="0 0 16 17" fill="none" xmlns="http://www.w3.org/2000/svg">
<g clip-path="url(#clip0_1264_637)">
<path d="M7.00004 13.1666C10.1297 13.1666 12.6667 10.6296 12.6667 7.49992C12.6667 4.37025 10.1297 1.83325 7.00004 1.83325C3.87037 1.83325 1.33337 4.37025 1.33337 7.49992C1.33337 10.6296 3.87037 13.1666 7.00004 13.1666Z" stroke="#ACACAC" stroke-width="2" stroke-linejoin="round"/>
<path d="M8.88571 5.281C8.6383 5.03309 8.34436 4.83647 8.02077 4.70245C7.69717 4.56842 7.3503 4.49963 7.00005 4.5C6.6498 4.49963 6.30292 4.56842 5.97933 4.70245C5.65573 4.83647 5.36179 5.03309 5.11438 5.281M11.074 11.574L13.9024 14.4023" stroke="#ACACAC" stroke-width="2" stroke-linecap="round" stroke-linejoin="round"/>
</g>
<defs>
<clipPath id="clip0_1264_637">
<rect width="16" height="16" fill="white" transform="translate(0 0.5)"/>
</clipPath>
</defs>
</svg>
