<svg width="14" height="15" viewBox="0 0 14 15" fill="none" xmlns="http://www.w3.org/2000/svg">
<path d="M2.01152 0.5L0.511523 2.5H1.51152V4.5H2.51246V2.5H3.51246L2.01152 0.5ZM7.01246 0.5L5.51246 2.5H6.51246V4.5H7.51246V2.5H8.51246L7.01246 0.5ZM12.0125 0.5L10.5125 2.5H11.5125V4.5H12.5125V2.5H13.5125L12.0125 0.5ZM2.01152 5.5C1.47402 5.5 0.995898 6.075 0.995898 6.82812C0.995898 7.21562 1.12402 7.55937 1.31777 7.79688L1.51152 8.04062L1.20215 8.0875C0.908398 8.13437 0.708398 8.275 0.542773 8.49687C0.377148 8.71875 0.255273 9.025 0.180273 9.38437C0.0333984 10.0375 0.0302734 10.8406 0.0302734 11.5406H0.839648L1.03652 14.6031H2.90309L3.12809 11.5406H3.98121C3.97809 10.85 3.94371 10.0562 3.78434 9.40625C3.69684 9.05313 3.57496 8.74375 3.40934 8.51875C3.24996 8.29688 3.05309 8.15625 2.78746 8.10625L2.48434 8.05L2.68434 7.81563C2.88434 7.57188 3.02184 7.225 3.02184 6.82812C3.02184 6.11875 2.59371 5.56563 2.11152 5.5H2.01152ZM7.01246 5.5C6.47496 5.5 5.99684 6.075 5.99684 6.82812C5.99684 7.21562 6.12496 7.55937 6.31871 7.79688L6.51246 8.04062L6.20309 8.0875C5.90934 8.13437 5.70934 8.275 5.54371 8.49687C5.37809 8.71875 5.25621 9.025 5.18121 9.38437C5.03434 10.0375 5.03121 10.8406 5.03121 11.5406H5.84059L6.03746 14.6031H7.90309L8.12809 11.5406H8.98121C8.97809 10.85 8.94371 10.0562 8.78434 9.40625C8.69684 9.05313 8.57496 8.74375 8.40934 8.51875C8.24996 8.29688 8.05309 8.15625 7.78746 8.10625L7.48434 8.05L7.68434 7.81563C7.88434 7.57188 8.02184 7.225 8.02184 6.82812C8.02184 6.11875 7.59371 5.56563 7.11246 5.5H7.01246ZM12.0125 5.5C11.4781 5.5 11 6.075 11 6.82812C11 7.21562 11.1281 7.55937 11.3218 7.79688L11.5156 8.04062L11.2062 8.0875C10.9125 8.13437 10.7093 8.275 10.5437 8.49687C10.3781 8.71875 10.2562 9.025 10.1812 9.38437C10.0343 10.0375 10.0312 10.8406 10.0312 11.5406H10.8406L11.0406 14.6031H12.9031L13.1312 11.5406H13.9812C13.9781 10.85 13.9437 10.0562 13.7875 9.40625C13.7 9.05313 13.575 8.74375 13.4093 8.51875C13.25 8.29688 13.0531 8.15625 12.7906 8.10625L12.4875 8.05L12.6843 7.81563C12.8843 7.57188 13.0218 7.225 13.0218 6.82812C13.0218 6.11875 12.5937 5.56563 12.1125 5.5H12.0125Z" fill="white"/>
</svg>
