<svg width="16" height="17" viewBox="0 0 16 17" fill="none" xmlns="http://www.w3.org/2000/svg">
<path d="M15 3.5V2.5H13.5V1.5H12.5V2.5H12C11.4485 2.5 11 2.949 11 3.5V4.5C11 5.0515 11.4485 5.5 12 5.5H14V6.5H11V7.5H12.5V8.5H13.5V7.5H14C14.5515 7.5 15 7.0515 15 6.5V5.5C15 4.949 14.5515 4.5 14 4.5H12V3.5H15ZM12 10.5V11.5H13.293L11.5 13.293L10.354 12.1465C10.2604 12.0528 10.1334 12.0002 10.001 12H10C9.86758 12.0002 9.74062 12.0528 9.647 12.1465L7 14.793L7.707 15.5L10.0005 13.207L11.1465 14.3535C11.2403 14.4472 11.3674 14.4999 11.5 14.4999C11.6326 14.4999 11.7597 14.4472 11.8535 14.3535L14 12.207V13.5H15V10.5H12ZM2 15.5H1V13C1 11.07 2.57 9.5 4.5 9.5H7.5C8.4945 9.5 9.445 9.925 10.1085 10.6665L9.3635 11.3335C9.12901 11.0713 8.84182 10.8615 8.5207 10.7179C8.19959 10.5742 7.85177 10.5 7.5 10.5H4.5C3.1215 10.5 2 11.6215 2 13V15.5ZM6 8.5C6.92826 8.5 7.8185 8.13125 8.47487 7.47487C9.13125 6.8185 9.5 5.92826 9.5 5C9.5 4.07174 9.13125 3.1815 8.47487 2.52513C7.8185 1.86875 6.92826 1.5 6 1.5C5.07174 1.5 4.1815 1.86875 3.52513 2.52513C2.86875 3.1815 2.5 4.07174 2.5 5C2.5 5.92826 2.86875 6.8185 3.52513 7.47487C4.1815 8.13125 5.07174 8.5 6 8.5ZM6 2.5C6.66304 2.5 7.29893 2.76339 7.76777 3.23223C8.23661 3.70107 8.5 4.33696 8.5 5C8.5 5.66304 8.23661 6.29893 7.76777 6.76777C7.29893 7.23661 6.66304 7.5 6 7.5C5.33696 7.5 4.70107 7.23661 4.23223 6.76777C3.76339 6.29893 3.5 5.66304 3.5 5C3.5 4.33696 3.76339 3.70107 4.23223 3.23223C4.70107 2.76339 5.33696 2.5 6 2.5Z" fill="white"/>
</svg>
