<svg width="20" height="20" viewBox="0 0 20 20" fill="none" xmlns="http://www.w3.org/2000/svg">
<path d="M6.4 12.65C6.55 12.25 6.671 11.829 6.763 11.387C6.855 10.945 6.90067 10.4827 6.9 10C6.89933 9.51733 6.85367 9.05467 6.763 8.612C6.67233 8.16933 6.55133 7.74867 6.4 7.35L4.55 8.1C4.65 8.4 4.73334 8.70833 4.8 9.025C4.86667 9.34167 4.9 9.66667 4.9 10C4.9 10.3333 4.86667 10.6583 4.8 10.975C4.73334 11.2917 4.65 11.6 4.55 11.9L6.4 12.65ZM9.6 14C9.88334 13.3667 10.0877 12.7167 10.213 12.05C10.3383 11.3833 10.4007 10.7 10.4 10C10.3993 9.3 10.337 8.61667 10.213 7.95C10.089 7.28333 9.88467 6.63333 9.6 6L7.75 6.75C7.98333 7.25 8.15 7.771 8.25 8.313C8.35 8.855 8.4 9.41733 8.4 10C8.4 10.5827 8.35 11.1453 8.25 11.688C8.15 12.2307 7.98333 12.7513 7.75 13.25L9.6 14ZM12.85 15.35C13.2 14.5167 13.4627 13.654 13.638 12.762C13.8133 11.87 13.9007 10.9493 13.9 10C13.8993 9.05067 13.812 8.13 13.638 7.238C13.464 6.346 13.2013 5.48333 12.85 4.65L11 5.45C11.3 6.15 11.525 6.88333 11.675 7.65C11.825 8.41667 11.9 9.2 11.9 10C11.9 10.8 11.825 11.5833 11.675 12.35C11.525 13.1167 11.3 13.85 11 14.55L12.85 15.35ZM10 20C8.61667 20 7.31667 19.7373 6.1 19.212C4.88334 18.6867 3.825 17.9743 2.925 17.075C2.025 16.1757 1.31267 15.1173 0.788001 13.9C0.263335 12.6827 0.000667933 11.3827 1.26582e-06 10C-0.000665401 8.61733 0.262001 7.31733 0.788001 6.1C1.314 4.88267 2.02633 3.82433 2.925 2.925C3.82367 2.02567 4.882 1.31333 6.1 0.788C7.318 0.262667 8.618 0 10 0C11.382 0 12.682 0.262667 13.9 0.788C15.118 1.31333 16.1763 2.02567 17.075 2.925C17.9737 3.82433 18.6863 4.88267 19.213 6.1C19.7397 7.31733 20.002 8.61733 20 10C19.998 11.3827 19.7353 12.6827 19.212 13.9C18.6887 15.1173 17.9763 16.1757 17.075 17.075C16.1737 17.9743 15.1153 18.687 13.9 19.213C12.6847 19.739 11.3847 20.0013 10 20ZM10 18C12.2333 18 14.125 17.225 15.675 15.675C17.225 14.125 18 12.2333 18 10C18 7.76667 17.225 5.875 15.675 4.325C14.125 2.775 12.2333 2 10 2C7.76667 2 5.875 2.775 4.325 4.325C2.775 5.875 2 7.76667 2 10C2 12.2333 2.775 14.125 4.325 15.675C5.875 17.225 7.76667 18 10 18Z" fill="white"/>
</svg>
